# xmcd
#
# Track frame offsets:
#	150
#	11502
#	24475
#	37597
#	52687
#	63500
#	75120
#	93057
#	106605
#	121782
#	136505
#
# Disc length: 2001 seconds
#
# Revision: 1
# Processed by: cddbd v1.4PL0 Copyright (c) Steve Scherf et al.
# Submitted via: audiograbber 1.81.02
#
DISCID=5f07cf0b
DTITLE=Los Rieleros Del Norte - Cuesta Arriba
DYEAR=2002
DGENRE=Latin
TTITLE0=Una Noche De Mi Vida
TTITLE1=Acuso De Robo
TTITLE2=Mi Espejo
TTITLE3=La Equivocacion
TTITLE4=Por Amar A Lo Tonto
TTITLE5=Porque Te Quiero
TTITLE6=Capricho Maldito
TTITLE7=Cuesta Arriba
TTITLE8=Chaparrita De Mi Vida
TTITLE9=Almohada Mojada
TTITLE10=Increible
EXTD=
EXTT0=
EXTT1=
EXTT2=
EXTT3=
EXTT4=
EXTT5=
EXTT6=
EXTT7=
EXTT8=
EXTT9=
EXTT10=
PLAYORDER=
